<?xml version="1.0" encoding="UTF-8"?>
<svg version="1.1" xmlns="http://www.w3.org/2000/svg" width="1563" height="1563">
<path d="M0 0 C1.06992188 0.25523438 2.13984375 0.51046875 3.2421875 0.7734375 C24.15060678 6.45677341 41.57735301 18.13372555 57 33 C57.71800781 33.65484375 58.43601563 34.3096875 59.17578125 34.984375 C81.18459841 55.62591093 92.6487055 87.3982048 94 117 C94.04125 117.76957031 94.0825 118.53914063 94.125 119.33203125 C95.02246516 152.25778422 82.13302762 184.21924279 59.99609375 208.32421875 C36.95427003 232.60477321 6.00053381 246.62543464 -27.44604492 247.97631836 C-64.10821592 248.77711328 -96.15936582 235.06067002 -122.5 209.875 C-148.35365684 183.35842888 -157.71879205 150.42347319 -157.27734375 114.07421875 C-157.09981152 104.65608033 -155.74212324 95.99230229 -153 87 C-152.79632813 86.29456055 -152.59265625 85.58912109 -152.3828125 84.86230469 C-143.14706569 53.46361608 -121.09087549 27.27119627 -92.72460938 11.35888672 C-64.98391342 -3.67045601 -30.61296656 -7.7373432 0 0 Z " fill="#FE603E" transform="translate(157,3)"/>
<path d="M0 0 C7.92 0 15.84 0 24 0 C28.5 11.25 28.5 11.25 30.359375 17.1015625 C30.75253906 18.33261719 31.14570312 19.56367187 31.55078125 20.83203125 C32.14439453 22.70955078 32.14439453 22.70955078 32.75 24.625 C33.16502791 25.92849266 33.58039038 27.23187885 33.99609375 28.53515625 C35.00067611 31.68907762 36.00189613 34.84402367 37 38 C37.33 38 37.66 38 38 38 C40.97 25.46 43.94 12.92 47 0 C55.25 0 63.5 0 72 0 C71.34 1.32 70.68 2.64 70 4 C68.95421404 7.13735789 68.8608417 9.36787461 68.83886719 12.66137695 C68.82925964 13.82300858 68.8196521 14.9846402 68.80975342 16.18147278 C68.80550354 17.43771957 68.80125366 18.69396637 68.796875 19.98828125 C68.79117493 21.27937302 68.78547485 22.57046478 68.77960205 23.90068054 C68.76910206 26.63520704 68.7632531 29.36970423 68.75976562 32.10424805 C68.75428808 35.59790787 68.73027224 39.09117656 68.70179367 42.58471394 C68.67861865 45.92756193 68.67671429 49.27035711 68.671875 52.61328125 C68.6533548 54.4885424 68.6533548 54.4885424 68.63446045 56.40168762 C68.63746155 57.57277573 68.64046265 58.74386383 68.64355469 59.95043945 C68.63990906 60.97619583 68.63626343 62.00195221 68.63250732 63.05879211 C68.91768697 66.66754917 68.91768697 66.66754917 72 72 C62.43 72 52.86 72 43 72 C43.99 70.68 44.98 69.36 46 68 C46.4300884 65.62346675 46.4300884 65.62346675 46.34057617 63.04785156 C46.34034958 62.06713684 46.34012299 61.08642212 46.33988953 60.07598877 C46.32440567 59.02481873 46.30892181 57.97364868 46.29296875 56.890625 C46.28660149 55.26770538 46.28660149 55.26770538 46.28010559 53.61199951 C46.26331845 50.1577461 46.22566527 46.70407696 46.1875 43.25 C46.17245325 40.90756051 46.15876483 38.56511187 46.14648438 36.22265625 C46.11341481 30.48157162 46.06321466 24.74082755 46 19 C45.8518837 19.63449066 45.7037674 20.26898132 45.55116272 20.92269897 C44.01311461 27.50906931 42.47157512 34.09461536 40.92797852 40.6796875 C40.35188093 43.13943729 39.77668276 45.59939791 39.20239258 48.05957031 C38.37816306 51.58974748 37.55073291 55.11916106 36.72265625 58.6484375 C36.46533218 59.75367767 36.20800812 60.85891785 35.94288635 61.99765015 C35.70271286 63.01855743 35.46253937 64.03946472 35.21508789 65.09130859 C35.00412979 65.99287689 34.79317169 66.89444519 34.57582092 67.82333374 C34 70 34 70 33 72 C30.69 72 28.38 72 26 72 C19.73 52.86 13.46 33.72 7 14 C7 33.54503092 8.26435056 57.26435056 23 72 C15.41 72 7.82 72 0 72 C0 71.34 0 70.68 0 70 C0.99 69.505 0.99 69.505 2 69 C3.14245015 65.82437634 3.13235129 62.74180175 3.14526367 59.39282227 C3.15164352 58.26807999 3.15802338 57.14333771 3.16459656 55.98451233 C3.16570938 54.77403732 3.1668222 53.56356232 3.16796875 52.31640625 C3.17129715 51.06874985 3.17462555 49.82109344 3.17805481 48.53562927 C3.18311752 45.89700756 3.18589592 43.25848888 3.18530273 40.61987305 C3.1852011 37.24617516 3.19885934 33.87268768 3.21607494 30.49903965 C3.22989466 27.27150311 3.22928429 24.04396836 3.23046875 20.81640625 C3.23765427 19.60795547 3.24483978 18.3995047 3.25224304 17.1544342 C3.24916641 16.02653976 3.24608978 14.89864532 3.24291992 13.73657227 C3.24434494 12.74714127 3.24576996 11.75771027 3.24723816 10.73829651 C2.98196913 7.8002984 2.20440293 5.67828175 1 3 C0.67 2.01 0.34 1.02 0 0 Z " fill="#FF0000" transform="translate(617,41)"/>
<path d="M0 0 C5.40770146 -0.04970314 10.8152678 -0.08586241 16.22314453 -0.10986328 C18.06008218 -0.11987648 19.89700407 -0.13349102 21.73388672 -0.15087891 C24.38513089 -0.17533422 27.036163 -0.18653013 29.6875 -0.1953125 C30.49928711 -0.20563507 31.31107422 -0.21595764 32.14746094 -0.22659302 C40.0246861 -0.22811819 46.70455033 0.78902497 52.5859375 6.375 C55.9736607 10.26807417 56.16736564 14.0467662 55.9375 19 C55.41000436 22.90346771 54.56536929 25.80988168 51.7421875 28.75 C48.20251415 31.28967595 44.10824818 32.64387924 40 34 C40.53109375 34.40089844 41.0621875 34.80179688 41.609375 35.21484375 C49.40518144 41.4884763 51.41149502 47.70250107 53.9375 57.1875 C55.42809587 62.68073178 56.87044056 66.09986053 61 70 C56.33306163 73.70136491 52.9588501 74.38444194 47 74 C42.30517546 73.05138819 38.31268714 71.84036519 35.0625 68.1875 C31.09207714 62.05139194 30.53279198 55.98744507 29.9375 48.875 C29.78265528 47.10132406 29.62519916 45.32787372 29.46484375 43.5546875 C29.399021 42.77593262 29.33319824 41.99717773 29.26538086 41.19482422 C29.00743391 39.06148194 28.56835996 37.07013844 28 35 C27.34 35 26.68 35 26 35 C26 46.55 26 58.1 26 70 C27.485 70.495 27.485 70.495 29 71 C29 71.33 29 71.66 29 72 C19.43 72 9.86 72 0 72 C0 71.34 0 70.68 0 70 C0.99 69.505 0.99 69.505 2 69 C3.14245015 65.82437634 3.13235129 62.74180175 3.14526367 59.39282227 C3.15164352 58.26807999 3.15802338 57.14333771 3.16459656 55.98451233 C3.16570938 54.77403732 3.1668222 53.56356232 3.16796875 52.31640625 C3.17129715 51.06874985 3.17462555 49.82109344 3.17805481 48.53562927 C3.18311752 45.89700756 3.18589592 43.25848888 3.18530273 40.61987305 C3.1852011 37.24617516 3.19885934 33.87268768 3.21607494 30.49903965 C3.22989466 27.27150311 3.22928429 24.04396836 3.23046875 20.81640625 C3.23765427 19.60795547 3.24483978 18.3995047 3.25224304 17.1544342 C3.24916641 16.02653976 3.24608978 14.89864532 3.24291992 13.73657227 C3.24434494 12.74714127 3.24576996 11.75771027 3.24723816 10.73829651 C2.98196913 7.8002984 2.20440293 5.67828175 1 3 C0.67 2.01 0.34 1.02 0 0 Z M25 2 C25 11.9 25 21.8 25 32 C30.81431428 30.6747749 30.81431428 30.6747749 32.8125 27.6875 C35.4913645 21.62480667 35.52095679 15.79422281 34.3125 9.3125 C32.81129383 5.52374157 31.45189392 4.10481337 28 2 C27.01 2 26.02 2 25 2 Z " fill="#FF0000" transform="translate(1086,41)"/>
<path d="M0 0 C9.57 0 19.14 0 29 0 C28.34 1.32 27.68 2.64 27 4 C25.95220811 7.23147687 25.86779556 10.22010986 25.85473633 13.60717773 C25.84835648 14.73192001 25.84197662 15.85666229 25.83540344 17.01548767 C25.83429062 18.22596268 25.8331778 19.43643768 25.83203125 20.68359375 C25.82870285 21.93125015 25.82537445 23.17890656 25.82194519 24.46437073 C25.81688248 27.10299244 25.81410408 29.74151112 25.81469727 32.38012695 C25.8147989 35.75382484 25.80114066 39.12731232 25.78392506 42.50096035 C25.77010534 45.72849689 25.77071571 48.95603164 25.76953125 52.18359375 C25.76234573 53.39204453 25.75516022 54.6004953 25.74775696 55.8455658 C25.75083359 56.97346024 25.75391022 58.10135468 25.75708008 59.26342773 C25.75565506 60.25285873 25.75423004 61.24228973 25.75276184 62.26170349 C26.01593831 65.17652536 26.78256774 67.35272003 28 70 C29.65 70 31.3 70 33 70 C33.06947615 61.5768966 33.12279887 53.15391268 33.15543652 44.73059368 C33.17110009 40.81939774 33.19235063 36.90839766 33.22631836 32.99731445 C33.25888769 29.22367741 33.2768478 25.4502289 33.28463173 21.67646217 C33.29017965 20.23591964 33.30101336 18.79538754 33.31719017 17.35492516 C33.33892959 15.3391766 33.3402251 13.32323879 33.34057617 11.30737305 C33.34723801 10.15931686 33.35389984 9.01126068 33.36076355 7.82841492 C32.95762757 4.66779677 32.37392556 3.97590739 30 2 C30 1.34 30 0.68 30 0 C39.57 0 49.14 0 59 0 C58 2 57 4 56 6 C55.90172743 7.55034258 55.86448616 9.10476194 55.8581543 10.65820312 C55.85111984 11.62681274 55.84408539 12.59542236 55.83683777 13.59338379 C55.83267349 14.64537964 55.82850922 15.69737549 55.82421875 16.78125 C55.80100373 19.00782178 55.77688574 21.23438429 55.75195312 23.4609375 C55.71696254 26.97174116 55.68756839 30.48220797 55.67407227 33.99316406 C55.65849749 37.38127732 55.61820724 40.76840141 55.57421875 44.15625 C55.57612717 45.192052 55.57803558 46.227854 55.58000183 47.29504395 C55.45975856 54.54150948 54.46550109 61.94189968 49.58842468 67.6529541 C43.0037811 73.46570307 35.43184998 73.91165699 27 74 C20.5508854 73.43804396 15.21673093 71.86038089 10 68 C3.93772131 59.8077315 3.71376132 49.9397212 3.69140625 40.06640625 C3.66628361 38.01627274 3.64088514 35.96614259 3.61523438 33.91601562 C3.58634178 30.72079086 3.56228552 27.52562393 3.54370117 24.33032227 C3.52213832 21.22124353 3.48275485 18.11277535 3.44140625 15.00390625 C3.44129044 14.0445668 3.44117462 13.08522736 3.4410553 12.09681702 C3.42771652 11.20836594 3.41437775 10.31991486 3.40063477 9.40454102 C3.39556412 8.62417984 3.39049347 7.84381866 3.38526917 7.03981018 C2.90576371 4.50106532 1.86859395 3.70992497 0 2 C0 1.34 0 0.68 0 0 Z " fill="#FF0000" transform="translate(914,41)"/>
<path d="M0 0 C4.35584243 -0.07505428 8.71132632 -0.12902107 13.06762695 -0.16479492 C14.54458181 -0.17973313 16.02149349 -0.20009131 17.49829102 -0.22631836 C40.20770684 -0.61905495 40.20770684 -0.61905495 48.4375 7.125 C57.22802536 15.80407655 58.9101195 26.30156514 59.03515625 38.40234375 C58.50354968 49.30676149 55.70732559 57.70869172 48.5859375 66.02734375 C39.07509519 73.28259355 28.75090946 72.48648684 17.375 72.25 C15.68621916 72.22989933 13.99741515 72.21165488 12.30859375 72.1953125 C8.20514889 72.15161015 4.10283489 72.08278264 0 72 C0 71.34 0 70.68 0 70 C0.99 69.505 0.99 69.505 2 69 C3.14245015 65.82437634 3.13235129 62.74180175 3.14526367 59.39282227 C3.15164352 58.26807999 3.15802338 57.14333771 3.16459656 55.98451233 C3.16570938 54.77403732 3.1668222 53.56356232 3.16796875 52.31640625 C3.17129715 51.06874985 3.17462555 49.82109344 3.17805481 48.53562927 C3.18311752 45.89700756 3.18589592 43.25848888 3.18530273 40.61987305 C3.1852011 37.24617516 3.19885934 33.87268768 3.21607494 30.49903965 C3.22989466 27.27150311 3.22928429 24.04396836 3.23046875 20.81640625 C3.23765427 19.60795547 3.24483978 18.3995047 3.25224304 17.1544342 C3.24916641 16.02653976 3.24608978 14.89864532 3.24291992 13.73657227 C3.24434494 12.74714127 3.24576996 11.75771027 3.24723816 10.73829651 C2.98196913 7.8002984 2.20440293 5.67828175 1 3 C0.67 2.01 0.34 1.02 0 0 Z M25 3 C25 25.11 25 47.22 25 70 C30.03181416 67.98727434 31.20363338 67.33918958 34 63 C39.44466913 47.81223875 39.5891354 25.14833126 34 10 C32.52386993 7.30852285 31.38256023 6.03389288 29 4 C27.68 3.67 26.36 3.34 25 3 Z " fill="#FF0000" transform="translate(853,41)"/>
<path d="M0 0 C4.35584243 -0.07505428 8.71132632 -0.12902107 13.06762695 -0.16479492 C14.54458181 -0.17973313 16.02149349 -0.20009131 17.49829102 -0.22631836 C40.20770684 -0.61905495 40.20770684 -0.61905495 48.4375 7.125 C57.22802536 15.80407655 58.9101195 26.30156514 59.03515625 38.40234375 C58.50354968 49.30676149 55.70732559 57.70869172 48.5859375 66.02734375 C39.07509519 73.28259355 28.75090946 72.48648684 17.375 72.25 C15.68621916 72.22989933 13.99741515 72.21165488 12.30859375 72.1953125 C8.20514889 72.15161015 4.10283489 72.08278264 0 72 C0 71.34 0 70.68 0 70 C0.99 69.505 0.99 69.505 2 69 C3.14245015 65.82437634 3.13235129 62.74180175 3.14526367 59.39282227 C3.15164352 58.26807999 3.15802338 57.14333771 3.16459656 55.98451233 C3.16570938 54.77403732 3.1668222 53.56356232 3.16796875 52.31640625 C3.17129715 51.06874985 3.17462555 49.82109344 3.17805481 48.53562927 C3.18311752 45.89700756 3.18589592 43.25848888 3.18530273 40.61987305 C3.1852011 37.24617516 3.19885934 33.87268768 3.21607494 30.49903965 C3.22989466 27.27150311 3.22928429 24.04396836 3.23046875 20.81640625 C3.23765427 19.60795547 3.24483978 18.3995047 3.25224304 17.1544342 C3.24916641 16.02653976 3.24608978 14.89864532 3.24291992 13.73657227 C3.24434494 12.74714127 3.24576996 11.75771027 3.24723816 10.73829651 C2.98196913 7.8002984 2.20440293 5.67828175 1 3 C0.67 2.01 0.34 1.02 0 0 Z M25 3 C25 25.11 25 47.22 25 70 C30.03181416 67.98727434 31.20363338 67.33918958 34 63 C39.44466913 47.81223875 39.5891354 25.14833126 34 10 C32.52386993 7.30852285 31.38256023 6.03389288 29 4 C27.68 3.67 26.36 3.34 25 3 Z " fill="#FF0000" transform="translate(339,41)"/>
<path d="M0 0 C7.26 0 14.52 0 22 0 C23.32 2.413125 24.64 4.82625 26 7.3125 C31.36694806 17.04365622 37.03815239 26.59005112 42.72851562 36.1340332 C43.39689453 37.25511475 44.06527344 38.37619629 44.75390625 39.53125 C45.35533447 40.53736328 45.9567627 41.54347656 46.57641602 42.58007812 C47.42838645 44.02832558 48.2485648 45.4971296 49 47 C49.30328682 32.61781971 46.29269157 15.46098627 37 4 C36.01 3.34 35.02 2.68 34 2 C34 1.34 34 0.68 34 0 C41.26 0 48.52 0 56 0 C55.34 1.32 54.68 2.64 54 4 C52.95421404 7.13735789 52.8608417 9.36787461 52.83886719 12.66137695 C52.82925964 13.82300858 52.8196521 14.9846402 52.80975342 16.18147278 C52.80550354 17.43771957 52.80125366 18.69396637 52.796875 19.98828125 C52.78832489 21.9249189 52.78832489 21.9249189 52.77960205 23.90068054 C52.76910206 26.63520704 52.7632531 29.36970423 52.75976562 32.10424805 C52.75428808 35.59790787 52.73027224 39.09117656 52.70179367 42.58471394 C52.67861865 45.92756193 52.67671429 49.27035711 52.671875 52.61328125 C52.6595282 53.86345535 52.6471814 55.11362946 52.63446045 56.40168762 C52.60867971 64.6780334 52.60867971 64.6780334 56 72 C53.11987347 72.24453905 50.260522 72.42157916 47.375 72.5625 C46.56675781 72.63791016 45.75851562 72.71332031 44.92578125 72.79101562 C42.36723233 72.88462107 40.44140497 72.78631833 38 72 C35.2927921 69.39965557 33.7405695 66.29775237 32 63 C30.83163449 61.00835372 29.65956547 59.01887678 28.484375 57.03125 C27.23670416 54.85581542 25.99200695 52.67867319 24.75 50.5 C23.43156296 48.20019203 22.11255084 45.90071365 20.79296875 43.6015625 C20.15149902 42.48297852 19.5100293 41.36439453 18.84912109 40.21191406 C16.28054095 35.75030324 13.67837234 31.3090101 11.0625 26.875 C10.64387695 26.16537109 10.22525391 25.45574219 9.79394531 24.72460938 C8.86358857 23.14917324 7.93197055 21.57448201 7 20 C7.34195019 38.49639642 11.28168584 57.3521073 23 72 C15.41 72 7.82 72 0 72 C0.99 70.35 1.98 68.7 3 67 C3.43098011 63.91312129 3.43098011 63.91312129 3.34057617 60.55737305 C3.34034958 59.27642258 3.34012299 57.99547211 3.33988953 56.67570496 C3.32457193 55.28770596 3.30892398 53.89971057 3.29296875 52.51171875 C3.28736926 51.08397366 3.28310083 49.65622278 3.28010559 48.22846985 C3.26868449 44.48171912 3.2392414 40.73532064 3.20599365 36.9887085 C3.17523342 33.16114059 3.16158758 29.33351542 3.14648438 25.50585938 C3.11436861 18.00374616 3.06320597 10.50192255 3 3 C2.01 2.67 1.02 2.34 0 2 C0 1.34 0 0.68 0 0 Z " fill="#FF0000" transform="translate(795,41)"/>
<path d="M0 0 C1.79920898 0.02030273 1.79920898 0.02030273 3.63476562 0.04101562 C6.56920707 0.07608863 9.50341459 0.12988523 12.4375 0.1875 C12.4375 8.1075 12.4375 16.0275 12.4375 24.1875 C11.7775 24.1875 11.1175 24.1875 10.4375 24.1875 C10.10878906 23.00994141 10.10878906 23.00994141 9.7734375 21.80859375 C7.57160811 14.51391509 5.28762876 8.02383261 -1.56640625 4.015625 C-4.73020111 2.70305257 -6.35578193 3.00952193 -9.5625 4.1875 C-16.96032388 10.87879014 -17.33677729 24.14098564 -17.84765625 33.5078125 C-18.23734865 45.67906553 -17.42615121 59.78802847 -10.5625 70.1875 C-8.51141008 71.38824254 -8.51141008 71.38824254 -6.5625 72.1875 C-6.63132757 67.25739247 -6.71926828 62.32813713 -6.82495117 57.39868164 C-6.85820863 55.72169441 -6.88623808 54.04459503 -6.90893555 52.36743164 C-6.94246737 49.95670775 -6.99477978 47.54701238 -7.05078125 45.13671875 C-7.05717117 44.38662033 -7.0635611 43.63652191 -7.07014465 42.86369324 C-7.13069074 38.7716828 -7.13069074 38.7716828 -9.09448242 35.31567383 C-9.82115112 34.75722778 -9.82115112 34.75722778 -10.5625 34.1875 C-10.5625 33.5275 -10.5625 32.8675 -10.5625 32.1875 C-0.9925 32.1875 8.5775 32.1875 18.4375 32.1875 C17.7775 33.5075 17.1175 34.8275 16.4375 36.1875 C15.23559932 39.79271722 15.23320985 43.36071085 15.12109375 47.140625 C15.10031265 47.80084656 15.07953156 48.46106812 15.05812073 49.14129639 C14.99299853 51.23993015 14.93391498 53.33868372 14.875 55.4375 C14.83177921 56.86459547 14.7881638 58.29167905 14.74414062 59.71875 C14.63735589 63.20820722 14.53598434 66.69779753 14.4375 70.1875 C12.68220326 70.84180686 10.92539942 71.49207158 9.16796875 72.140625 C8.18981201 72.50317383 7.21165527 72.86572266 6.20385742 73.23925781 C-3.31135052 76.50084705 -12.34446779 75.76883008 -21.5625 72.1875 C-29.05992087 68.28884115 -34.96285829 61.66052901 -38.0625 53.8125 C-41.55685882 41.69872277 -41.212231 27.02343742 -35.30859375 15.8046875 C-30.67581918 8.15492895 -24.76167544 3.48647016 -16.27124023 0.77636719 C-10.90164555 -0.39095705 -5.46666586 -0.11798559 0 0 Z " fill="#FF0000" transform="translate(441.5625,39.8125)"/>
<path d="M0 0 C1.29486328 0.01353516 2.58972656 0.02707031 3.92382812 0.04101562 C7.09523365 0.07612344 10.26642285 0.1299216 13.4375 0.1875 C13.4375 8.1075 13.4375 16.0275 13.4375 24.1875 C11.26156526 22.01156526 10.53907843 20.30054445 9.3125 17.5 C6.20611392 11.14937047 1.90935944 7.17141968 -4.1875 3.6875 C-8.0016678 2.88451731 -11.08288622 3.29973173 -14.4375 5.3125 C-16.28184913 8.38641522 -15.97255292 10.67276069 -15.5625 14.1875 C-12.77401159 21.62346909 -7.21932775 24.33309326 -0.5625 28.1875 C7.36661744 32.791842 14.41036542 37.10609627 17.4375 46.1875 C18.10750408 53.60147958 18.08226115 60.10313452 13.4375 66.1875 C7.155035 72.8570363 1.02737567 74.64508726 -8.0078125 75.21875 C-17.06470226 75.13912899 -23.73180554 72.66218255 -31.5625 68.1875 C-31.5625 59.9375 -31.5625 51.6875 -31.5625 43.1875 C-29.5625 44.1875 -29.5625 44.1875 -28.73828125 46.33984375 C-28.45339844 47.25894531 -28.16851563 48.17804688 -27.875 49.125 C-24.74313025 58.07818898 -19.30085887 66.81832057 -10.5625 71.1875 C-5.19571343 71.78521744 -5.19571343 71.78521744 -0.5 69.75 C1.36282855 64.65826862 0.19552434 59.91028258 -1.9375 55.0625 C-5.85236654 50.77478903 -10.62598444 48.17814038 -15.5625 45.1875 C-23.08984705 40.31811448 -29.60424299 36.02368507 -32.5625 27.1875 C-33.43984251 19.79129859 -33.0628109 13.30140922 -28.5625 7.1875 C-21.00691141 -0.79983651 -10.19949559 -0.2034682 0 0 Z " fill="#FF0000" transform="translate(1008.5625,39.8125)"/>
<path d="M0 0 C1.29486328 0.01353516 2.58972656 0.02707031 3.92382812 0.04101562 C7.09523365 0.07612344 10.26642285 0.1299216 13.4375 0.1875 C13.4375 8.1075 13.4375 16.0275 13.4375 24.1875 C11.26156526 22.01156526 10.53907843 20.30054445 9.3125 17.5 C6.20611392 11.14937047 1.90935944 7.17141968 -4.1875 3.6875 C-8.0016678 2.88451731 -11.08288622 3.29973173 -14.4375 5.3125 C-16.28184913 8.38641522 -15.97255292 10.67276069 -15.5625 14.1875 C-12.77401159 21.62346909 -7.21932775 24.33309326 -0.5625 28.1875 C7.36661744 32.791842 14.41036542 37.10609627 17.4375 46.1875 C18.10750408 53.60147958 18.08226115 60.10313452 13.4375 66.1875 C7.155035 72.8570363 1.02737567 74.64508726 -8.0078125 75.21875 C-17.06470226 75.13912899 -23.73180554 72.66218255 -31.5625 68.1875 C-31.5625 59.9375 -31.5625 51.6875 -31.5625 43.1875 C-29.5625 44.1875 -29.5625 44.1875 -28.73828125 46.33984375 C-28.45339844 47.25894531 -28.16851563 48.17804688 -27.875 49.125 C-24.74313025 58.07818898 -19.30085887 66.81832057 -10.5625 71.1875 C-5.19571343 71.78521744 -5.19571343 71.78521744 -0.5 69.75 C1.36282855 64.65826862 0.19552434 59.91028258 -1.9375 55.0625 C-5.85236654 50.77478903 -10.62598444 48.17814038 -15.5625 45.1875 C-23.08984705 40.31811448 -29.60424299 36.02368507 -32.5625 27.1875 C-33.43984251 19.79129859 -33.0628109 13.30140922 -28.5625 7.1875 C-21.00691141 -0.79983651 -10.19949559 -0.2034682 0 0 Z " fill="#FF0000" transform="translate(724.5625,39.8125)"/>
<path d="M0 0 C16.83 0 33.66 0 51 0 C51 7.59 51 15.18 51 23 C49 21 49 21 47.75 17.8125 C45.49930641 12.39500135 42.05605499 8.37070333 37.1875 5.125 C33.13673157 3.55991113 33.13673157 3.55991113 25 3 C25 12.9 25 22.8 25 33 C34.28320508 30.33033761 34.28320508 30.33033761 40.3125 23.75 C40.539375 23.1725 40.76625 22.595 41 22 C41.66 22 42.32 22 43 22 C43 29.92 43 37.84 43 46 C42.34 46 41.68 46 41 46 C40.566875 45.2575 40.13375 44.515 39.6875 43.75 C37.45469454 40.11135406 35.15666935 37.65456852 30.9753418 36.38549805 C30.26547119 36.22090088 29.55560059 36.05630371 28.82421875 35.88671875 C27.56222656 35.59410156 26.30023438 35.30148438 25 35 C25.11851307 39.19940207 25.24277882 43.3985831 25.37231445 47.59765625 C25.41555318 49.02534388 25.45723585 50.45307954 25.49731445 51.88085938 C25.55528602 53.93634496 25.61890175 55.99159128 25.68359375 58.046875 C25.72025146 59.28276367 25.75690918 60.51865234 25.79467773 61.79199219 C26.02953136 65.47856709 26.02953136 65.47856709 27 69 C27.66 69.33 28.32 69.66 29 70 C29 70.66 29 71.32 29 72 C19.43 72 9.86 72 0 72 C0.495 71.01 0.495 71.01 1 70 C1.66 70 2.32 70 3 70 C3.06947615 61.5768966 3.12279887 53.15391268 3.15543652 44.73059368 C3.17110009 40.81939774 3.19235063 36.90839766 3.22631836 32.99731445 C3.25888769 29.22367741 3.2768478 25.4502289 3.28463173 21.67646217 C3.29017965 20.23591964 3.30101336 18.79538754 3.31719017 17.35492516 C3.33892959 15.3391766 3.3402251 13.32323879 3.34057617 11.30737305 C3.34723801 10.15931686 3.35389984 9.01126068 3.36076355 7.82841492 C2.95762757 4.66779677 2.37392556 3.97590739 0 2 C0 1.34 0 0.68 0 0 Z " fill="#FF0000" transform="translate(481,41)"/>
<path d="M0 0 C18.15 0 36.3 0 55 0 C55 8.25 55 16.5 55 25 C54.34 25 53.68 25 53 25 C52.91363281 24.443125 52.82726563 23.88625 52.73828125 23.3125 C51.40044244 16.04643965 48.82618502 10.62431466 43.375 5.5625 C41.00919713 3.8601602 41.00919713 3.8601602 38 3 C38.06122376 11.40610083 38.13833839 19.81184182 38.23571491 28.21759415 C38.28043273 32.12079044 38.31968549 36.02388202 38.34643555 39.92724609 C38.37245484 43.69460155 38.41284682 47.46155435 38.46318626 51.22866058 C38.47986442 52.66550435 38.49137282 54.10241778 38.49761391 55.53934479 C38.50724372 57.55270928 38.53699877 59.56594702 38.56762695 61.57910156 C38.58428154 63.29785492 38.58428154 63.29785492 38.60127258 65.05133057 C38.81411878 68.4290833 38.81411878 68.4290833 42 72 C32.43 72 22.86 72 13 72 C13.99 70.02 14.98 68.04 16 66 C16.4644313 62.85581599 16.4644313 62.85581599 16.43237305 59.53564453 C16.45216721 58.27479034 16.47196136 57.01393616 16.49235535 55.71487427 C16.49912353 54.35418854 16.50557057 52.99350117 16.51171875 51.6328125 C16.5285795 50.2288965 16.54673162 48.82499548 16.56611633 47.42111206 C16.61347151 43.74199095 16.64337399 40.06293054 16.66955566 36.38360596 C16.69943476 32.62280289 16.74593967 28.86220869 16.79101562 25.1015625 C16.87688368 17.73447897 16.94430169 10.36737998 17 3 C10.21710388 6.27991933 6.49713342 9.73849664 3.95703125 16.96875 C3.2251098 19.63528072 2.56705914 22.29403358 2 25 C1.34 25 0.68 25 0 25 C0 16.75 0 8.5 0 0 Z " fill="#FF0000" transform="translate(1029,41)"/>
<path d="M0 0 C10.56 0 21.12 0 32 0 C31.34 1.32 30.68 2.64 30 4 C29.35516332 11.48603499 32.98516194 17.66975009 36.5 24 C37.01175781 24.95261719 37.52351563 25.90523437 38.05078125 26.88671875 C40.1571447 31.20172246 40.1571447 31.20172246 43 35 C44.14744331 32.39653203 45.29301468 29.79226795 46.4375 27.1875 C46.76298828 26.44951172 47.08847656 25.71152344 47.42382812 24.95117188 C47.73642578 24.23896484 48.04902344 23.52675781 48.37109375 22.79296875 C48.65911865 22.1383667 48.94714355 21.48376465 49.24389648 20.80932617 C51.0168816 16.56664207 51.79984637 12.55912433 51 8 C48.75771217 5.07256866 47.17813739 3.41394017 43.6875 2.1875 C43.130625 2.125625 42.57375 2.06375 42 2 C42 1.34 42 0.68 42 0 C50.58 0 59.16 0 68 0 C68 0.66 68 1.32 68 2 C67.26265625 2.39058594 66.5253125 2.78117187 65.765625 3.18359375 C62.21664719 5.51449019 60.67577429 8.39881034 58.75 12.0625 C58.37302979 12.77438477 57.99605957 13.48626953 57.60766602 14.21972656 C56.81119595 15.72744226 56.01838034 17.23709345 55.22900391 18.74853516 C54.04203148 20.92300073 52.75691641 22.99079396 51.41796875 25.07421875 C43.67405295 37.73899746 42.5267431 52.40653519 45 67 C46.485 69.475 46.485 69.475 48 72 C38.43 72 28.86 72 19 72 C19.99 70.35 20.98 68.7 22 67 C26.43888528 45.75328497 19.71567262 29.37877232 8.81103516 11.74267578 C5.21065807 6.04167826 5.21065807 6.04167826 0 2 C0 1.34 0 0.68 0 0 Z " fill="#FF0000" transform="translate(1146,41)"/>
<path d="M0 0 C3.36020022 0.52830343 6.60232485 1.14587937 9.875 2.0625 C19.08442648 4.13501053 29.56222926 3.79651202 38.69140625 1.53515625 C41.76913168 0.82170721 44.87059572 0.42104712 48 0 C48.38472442 16.22254649 48.38472442 16.22254649 46 24 C45.731875 24.96679688 45.46375 25.93359375 45.1875 26.9296875 C42.12275409 37.17104675 37.33918561 44.50193105 28 50 C24.81624331 51.26023702 23.22405488 51.52071689 20.0625 50.17578125 C11.14495062 45.09210253 6.65688842 37.49461615 2.875 28.25 C0.33826699 18.82784884 -0.28250018 9.73056182 0 0 Z " fill="#060201" transform="translate(119,74)"/>
<path d="M0 0 C9.57 0 19.14 0 29 0 C28.34 1.32 27.68 2.64 27 4 C25.8901012 7.38300718 25.84514831 10.59814757 25.79467773 14.14550781 C25.77473251 15.38649231 25.75478729 16.62747681 25.73423767 17.90606689 C25.71725607 19.255085 25.70037717 20.60410441 25.68359375 21.953125 C25.66301124 23.33746951 25.64201443 24.72180792 25.62062073 26.10614014 C25.56553393 29.742544 25.51606586 33.37900333 25.46777344 37.01550293 C25.41746036 40.72913525 25.36182558 44.44268744 25.30664062 48.15625 C25.19922296 55.43743206 25.09774192 62.71868094 25 70 C26.60012104 69.70812677 28.1988172 69.40843507 29.796875 69.10546875 C30.68729492 68.93942139 31.57771484 68.77337402 32.49511719 68.60229492 C38.84522567 67.07542186 43.46166716 62.29651065 47 57 C47.9636928 54.64124714 48.48730284 52.5122161 49 50 C49.66 50 50.32 50 51 50 C51 57.26 51 64.52 51 72 C34.17 72 17.34 72 0 72 C0.495 71.01 0.495 71.01 1 70 C1.66 70 2.32 70 3 70 C3.06947615 61.5768966 3.12279887 53.15391268 3.15543652 44.73059368 C3.17110009 40.81939774 3.19235063 36.90839766 3.22631836 32.99731445 C3.25888769 29.22367741 3.2768478 25.4502289 3.28463173 21.67646217 C3.29017965 20.23591964 3.30101336 18.79538754 3.31719017 17.35492516 C3.33892959 15.3391766 3.3402251 13.32323879 3.34057617 11.30737305 C3.34723801 10.15931686 3.35389984 9.01126068 3.36076355 7.82841492 C2.95762757 4.66779677 2.37392556 3.97590739 0 2 C0 1.34 0 0.68 0 0 Z " fill="#FF0000" transform="translate(564,41)"/>
<path d="M0 0 C4.41328731 0.76255504 6.06486094 2.61230656 8.62109375 6.16796875 C10.71499321 10.46847046 11.26235478 14.8600484 11.95727539 19.55957031 C13.01673765 26.66630906 14.72073657 33.42769289 18.625 39.546875 C20.30024185 42.53565875 20.22053149 44.71800924 19.64453125 48.06640625 C18.56637585 51.30087244 16.65264125 52.96425206 14 55 C5.98037707 57.61620961 -1.6061847 56.61669981 -9.125 53.0625 C-15.63245288 49.64117486 -20.83547836 45.18290072 -26 40 C-26.70382813 39.35546875 -27.40765625 38.7109375 -28.1328125 38.046875 C-31.68773916 34.73661941 -33.31793863 32.95126031 -34 28 C-33.39414063 27.79246094 -32.78828125 27.58492187 -32.1640625 27.37109375 C-24.12429049 24.41493143 -16.99752002 20.25348841 -11 14.0625 C-10.34 13.381875 -9.68 12.70125 -9 12 C-8.34 12 -7.68 12 -7 12 C-6.72414063 11.42765625 -6.44828125 10.8553125 -6.1640625 10.265625 C-5.00532152 8.01035733 -3.73124294 5.89143622 -2.375 3.75 C-1.70597656 2.69039063 -1.70597656 2.69039063 -1.0234375 1.609375 C-0.68570313 1.07828125 -0.34796875 0.5471875 0 0 Z " fill="#070201" transform="translate(107,73)"/>
<path d="M0 0 C9.57 0 19.14 0 29 0 C28.34 1.32 27.68 2.64 27 4 C25.94749379 7.23910544 25.87332968 10.2275063 25.87060547 13.62304688 C25.86745331 14.75101685 25.86430115 15.87898682 25.86105347 17.0411377 C25.8630777 18.25474976 25.86510193 19.46836182 25.8671875 20.71875 C25.86623077 21.96877808 25.86527405 23.21880615 25.86428833 24.50671387 C25.86360785 27.14953068 25.8649507 29.792255 25.86962891 32.43505859 C25.87532592 35.81776373 25.87204439 39.20038951 25.86605644 42.58309174 C25.86156835 45.81581398 25.86471329 49.04852672 25.8671875 52.28125 C25.86516327 53.49486206 25.86313904 54.70847412 25.86105347 55.9588623 C25.86420563 57.08683228 25.86735779 58.21480225 25.87060547 59.37695312 C25.87140106 60.36860474 25.87219666 61.36025635 25.87301636 62.38195801 C25.98892651 64.77169616 26.18930172 66.75146025 27 69 C27.66 69.33 28.32 69.66 29 70 C29 70.66 29 71.32 29 72 C19.43 72 9.86 72 0 72 C0.495 71.01 0.495 71.01 1 70 C1.66 70 2.32 70 3 70 C3.06947615 61.5768966 3.12279887 53.15391268 3.15543652 44.73059368 C3.17110009 40.81939774 3.19235063 36.90839766 3.22631836 32.99731445 C3.25888769 29.22367741 3.2768478 25.4502289 3.28463173 21.67646217 C3.29017965 20.23591964 3.30101336 18.79538754 3.31719017 17.35492516 C3.33892959 15.3391766 3.3402251 13.32323879 3.34057617 11.30737305 C3.34723801 10.15931686 3.35389984 9.01126068 3.36076355 7.82841492 C2.95762757 4.66779677 2.37392556 3.97590739 0 2 C0 1.34 0 0.68 0 0 Z " fill="#FF0000" transform="translate(764,41)"/>
<path d="M0 0 C9.57 0 19.14 0 29 0 C28.67 0.99 28.34 1.98 28 3 C27.34 3 26.68 3 26 3 C25.93042235 11.25817754 25.87714956 19.51623215 25.84456348 27.77463055 C25.82892205 31.60954343 25.80771195 35.44425545 25.77368164 39.27905273 C25.74103333 42.98137696 25.72313553 46.68350825 25.71536827 50.38596535 C25.70983453 51.79694467 25.69902836 53.20791369 25.68280983 54.61881065 C25.66096551 56.59822627 25.659774 58.57783693 25.65942383 60.55737305 C25.65276199 61.68322311 25.64610016 62.80907318 25.63923645 63.96903992 C25.8531246 67.52878481 25.8531246 67.52878481 29 72 C19.43 72 9.86 72 0 72 C0.99 70.35 1.98 68.7 3 67 C3.44984982 64.06469553 3.44984982 64.06469553 3.38818359 60.89624023 C3.39764008 59.68826279 3.40709656 58.48028534 3.4168396 57.23570251 C3.41076691 55.93975662 3.40469421 54.64381073 3.3984375 53.30859375 C3.40046003 51.95768578 3.40337297 50.60677888 3.40713501 49.25587463 C3.41154847 46.43064942 3.40515826 43.60570953 3.39111328 40.78051758 C3.37400505 37.16334852 3.38387838 33.54684652 3.40183067 29.92970181 C3.41268125 27.14238983 3.40921671 24.35523555 3.4014473 21.56791878 C3.39848014 19.58705841 3.40757202 17.60619186 3.4168396 15.62535095 C3.40738312 14.42052567 3.39792664 13.21570038 3.38818359 11.97436523 C3.38579681 10.91467026 3.38341003 9.85497528 3.38095093 8.76316833 C2.95036475 5.63997844 1.9980267 4.37152303 0 2 C0 1.34 0 0.68 0 0 Z " fill="#FF0000" transform="translate(534,41)"/>
<path d="M0 0 C2.0625 0.4375 2.0625 0.4375 4 1 C4.33 3.31 4.66 5.62 5 8 C5.33 7.67 5.66 7.34 6 7 C7.66617115 6.95936168 9.33388095 6.957279 11 7 C11.33 8.98 11.66 10.96 12 13 C12.99 12.01 13.98 11.02 15 10 C16.65 10.66 18.3 11.32 20 12 C19.48474397 17.28137429 17.74522883 20.57221156 15 25 C15.66 25 16.32 25 17 25 C16.34 26.32 15.68 27.64 15 29 C13.35 29 11.7 29 10 29 C10 25.66666667 10 22.33333333 10 19 C9.13375 20.2375 9.13375 20.2375 8.25 21.5 C7.5075 22.325 6.765 23.15 6 24 C4.68 24 3.36 24 2 24 C1 21 1 21 1 18 C0.731875 18.61875 0.46375 19.2375 0.1875 19.875 C-1 22 -1 22 -4 24 C-6.6875 23.625 -6.6875 23.625 -9 23 C-3.76595745 3.76595745 -3.76595745 3.76595745 0 0 Z M3 13 C4 15 4 15 4 15 Z " fill="#000000" transform="translate(1076,152)"/>
<path d="M0 0 C1.32 0 2.64 0 4 0 C5.20577428 4.94367454 4.6290678 8.20862412 3 13 C3.99 11.68 4.98 10.36 6 9 C7.65 9.33 9.3 9.66 11 10 C10.67 13.63 10.34 17.26 10 21 C13.53531978 14.75426838 15.00944361 9.09029841 16 2 C16.99 2 17.98 2 19 2 C20.92409938 5.84819877 20.60873619 10.16717473 19.28125 14.1640625 C17.27937813 18.47454468 15.19914237 21.55863816 11 24 C7.1875 24.75 7.1875 24.75 4 25 C3.34 23.68 2.68 22.36 2 21 C1.608125 21.66 1.21625 22.32 0.8125 23 C-1 25 -1 25 -3.625 25.3125 C-6 25 -6 25 -7 24 C-6.84920455 15.25386373 -3.40732083 7.9087355 0 0 Z " fill="#000000" transform="translate(699,150)"/>
<path d="M0 0 C1.65 0.33 3.3 0.66 5 1 C4.48594831 5.96916636 3.76615118 10.29026351 2 15 C3.65 13.02 5.3 11.04 7 9 C8.32 9.33 9.64 9.66 11 10 C11 13.3 11 16.6 11 20 C13.49149886 14.02040274 15.59533727 8.32098229 17 2 C17.99 2.33 18.98 2.66 20 3 C21.50771616 8.48260423 20.53894625 12.0978807 18 17 C15.40850736 21.02923855 12.75102633 23.78178812 8 25 C6.68 25 5.36 25 4 25 C3.34 23.68 2.68 22.36 2 21 C1.01 22.32 0.02 23.64 -1 25 C-2.65 24.67 -4.3 24.34 -6 24 C-6.33854043 17.73700212 -5.37166065 13.26890429 -3 7.5 C-2.71382813 6.77296875 -2.42765625 6.0459375 -2.1328125 5.296875 C-1.43395426 3.52643412 -0.71868368 1.76248618 0 0 Z " fill="#000000" transform="translate(414,150)"/>
<path d="M0 0 C1.32 0 2.64 0 4 0 C4 0.66 4 1.32 4 2 C4.62648438 2.03738281 5.25296875 2.07476562 5.8984375 2.11328125 C6.71570313 2.17902344 7.53296875 2.24476563 8.375 2.3125 C9.59316406 2.39951172 9.59316406 2.39951172 10.8359375 2.48828125 C13 3 13 3 15 6 C15.62227256 9.91142755 15.08775935 12.34925638 13 15.625 C9.97725138 19.50163241 6.46187569 21.15575805 2 23 C1.37480469 23.31066406 0.74960937 23.62132812 0.10546875 23.94140625 C-4.0841186 25.97687026 -5.14870438 25.97025912 -10 25 C-7.69 19.06 -5.38 13.12 -3 7 C-4.32 6.01 -5.64 5.02 -7 4 C-5.5459375 3.566875 -5.5459375 3.566875 -4.0625 3.125 C-0.89335797 2.35785318 -0.89335797 2.35785318 0 0 Z M4 5 C2.02 10.61 0.04 16.22 -2 22 C3.69574905 19.15212548 6.74044302 14.74812432 9.375 9 C9.58125 8.34 9.7875 7.68 10 7 C7.18490007 4.7226499 7.18490007 4.7226499 4 5 Z " fill="#000000" transform="translate(798,153)"/>
<path d="M0 0 C1.32 0 2.64 0 4 0 C4 0.66 4 1.32 4 2 C4.62648438 2.03738281 5.25296875 2.07476562 5.8984375 2.11328125 C6.71570313 2.17902344 7.53296875 2.24476563 8.375 2.3125 C9.59316406 2.39951172 9.59316406 2.39951172 10.8359375 2.48828125 C13 3 13 3 15 6 C15.62227256 9.91142755 15.08775935 12.34925638 13 15.625 C9.97725138 19.50163241 6.46187569 21.15575805 2 23 C1.37480469 23.31066406 0.74960937 23.62132812 0.10546875 23.94140625 C-4.0841186 25.97687026 -5.14870438 25.97025912 -10 25 C-7.69 19.06 -5.38 13.12 -3 7 C-4.32 6.01 -5.64 5.02 -7 4 C-5.5459375 3.566875 -5.5459375 3.566875 -4.0625 3.125 C-0.89335797 2.35785318 -0.89335797 2.35785318 0 0 Z M4 5 C2.02 10.61 0.04 16.22 -2 22 C3.69574905 19.15212548 6.74044302 14.74812432 9.375 9 C9.58125 8.34 9.7875 7.68 10 7 C7.18490007 4.7226499 7.18490007 4.7226499 4 5 Z " fill="#000000" transform="translate(610,153)"/>
<path d="M0 0 C2.3125 1.4375 2.3125 1.4375 3.375 3.6875 C3.28324261 7.72482521 1.89673659 9.34902213 -0.6875 12.4375 C-2.70020966 13.99351048 -4.76753171 15.44984075 -6.84765625 16.9140625 C-9.39118093 19.02016574 -10.52544403 21.38710308 -11.6875 24.4375 C-11.14480469 24.23253906 -10.60210938 24.02757812 -10.04296875 23.81640625 C-9.32753906 23.54699219 -8.61210938 23.27757812 -7.875 23 C-7.16730469 22.73316406 -6.45960938 22.46632812 -5.73046875 22.19140625 C-4.06077604 21.57524814 -2.37592296 21.00030765 -0.6875 20.4375 C-1.70566281 23.12795257 -2.41661117 24.26921331 -4.89453125 25.80859375 C-11.90373471 28.67742815 -11.90373471 28.67742815 -15.75 27.5 C-18.07501455 25.02498451 -18.60687778 23.8236334 -18.6875 20.4375 C-17.9375 18 -17.9375 18 -16.6875 15.4375 C-16.0996875 14.0453125 -16.0996875 14.0453125 -15.5 12.625 C-12.38013939 7.13834858 -7.22391809 -1.51198286 0 0 Z M-0.6875 5.4375 C-2.1725 7.4175 -2.1725 7.4175 -3.6875 9.4375 C-3.3575 10.0975 -3.0275 10.7575 -2.6875 11.4375 C-1.6975 10.4475 -0.7075 9.4575 0.3125 8.4375 C-0.0175 7.4475 -0.3475 6.4575 -0.6875 5.4375 Z " fill="#000000" transform="translate(858.6875,151.5625)"/>
<path d="M0 0 C4.08378283 0.74250597 8.01939223 1.82923301 12 3 C12.33 4.32 12.66 5.64 13 7 C7.25 12 7.25 12 5 12 C5.185625 13.03125 5.37125 14.0625 5.5625 15.125 C5.97307082 18.76148442 5.778309 21.45437009 5 25 C3.68 24.67 2.36 24.34 1 24 C0.67 22.02 0.34 20.04 0 18 C-1.65 20.64 -3.3 23.28 -5 26 C-6.65 25.67 -8.3 25.34 -10 25 C-11 22 -11 22 -10.21142578 19.96289062 C-9.58469971 18.82110352 -9.58469971 18.82110352 -8.9453125 17.65625 C-8.49542969 16.82222656 -8.04554688 15.98820313 -7.58203125 15.12890625 C-7.10121094 14.26136719 -6.62039063 13.39382812 -6.125 12.5 C-5.18827533 10.78224604 -4.25330263 9.06353522 -3.3203125 7.34375 C-2.90023926 6.58255859 -2.48016602 5.82136719 -2.04736328 5.03710938 C-0.87973423 2.89345022 -0.87973423 2.89345022 0 0 Z M5 4 C4.34 6.31 3.68 8.62 3 11 C3.61875 10.690625 4.2375 10.38125 4.875 10.0625 C6.25 9.375 7.625 8.6875 9 8 C8.67 6.68 8.34 5.36 8 4 C7.01 4 6.02 4 5 4 Z " fill="#000000" transform="translate(516,152)"/>
<path d="M0 0 C1.27875 0.103125 2.5575 0.20625 3.875 0.3125 C4.95394531 0.39951172 4.95394531 0.39951172 6.0546875 0.48828125 C8 1 8 1 10 4 C10.52028764 9.2028764 10.34269113 12.83851654 7.3984375 17.390625 C3.86860224 21.45289352 -0.15094763 23.83490604 -5.5 24.3125 C-6.325 24.209375 -7.15 24.10625 -8 24 C-9.68969245 18.16288062 -8.3477635 13.42816242 -6 8 C-4.1914017 5.15398237 -2.20209978 2.55130007 0 0 Z M5 3 C1.73547962 7.50278674 -0.34030747 11.67151345 -2 17 C-1.67 17.99 -1.34 18.98 -1 20 C0.19984797 17.73495035 1.38494769 15.46410112 2.5625 13.1875 C2.90474609 12.54490234 3.24699219 11.90230469 3.59960938 11.24023438 C4.4765023 9.53073605 5.24515617 7.76678706 6 6 C5.67 5.01 5.34 4.02 5 3 Z " fill="#000000" transform="translate(469,153)"/>
<path d="M0 0 C0.86625 0.3403125 0.86625 0.3403125 1.75 0.6875 C1.75 1.3475 1.75 2.0075 1.75 2.6875 C4.39 3.0175 7.03 3.3475 9.75 3.6875 C9.75 3.0275 9.75 2.3675 9.75 1.6875 C10.74 2.0175 11.73 2.3475 12.75 2.6875 C12.75 3.3475 12.75 4.0075 12.75 4.6875 C13.74 5.0175 14.73 5.3475 15.75 5.6875 C15.75 9.3175 15.75 12.9475 15.75 16.6875 C16.41 16.6875 17.07 16.6875 17.75 16.6875 C18.8312391 10.62699386 18.8312391 10.62699386 17.75 4.6875 C19.07 5.6775 20.39 6.6675 21.75 7.6875 C22.20375 6.8625 22.6575 6.0375 23.125 5.1875 C23.66125 4.3625 24.1975 3.5375 24.75 2.6875 C25.41 2.6875 26.07 2.6875 26.75 2.6875 C26.12954537 6.92072844 24.64476441 10.21040295 22.6875 14 C22.13964844 15.06863281 21.59179688 16.13726562 21.02734375 17.23828125 C20.60582031 18.04652344 20.18429688 18.85476562 19.75 19.6875 C17.77 19.6875 15.79 19.6875 13.75 19.6875 C13.75 18.0375 13.75 16.3875 13.75 14.6875 C11.275 14.1925 11.275 14.1925 8.75 13.6875 C8.75 11.0475 8.75 8.4075 8.75 5.6875 C8.09 5.6875 7.43 5.6875 6.75 5.6875 C6.75 9.3175 6.75 12.9475 6.75 16.6875 C5.43 16.3575 4.11 16.0275 2.75 15.6875 C2.7229957 14.22926788 2.70360213 12.77089325 2.6875 11.3125 C2.67589844 10.50039062 2.66429687 9.68828125 2.65234375 8.8515625 C2.75 6.6875 2.75 6.6875 3.75 4.6875 C1.77 4.6875 -0.21 4.6875 -2.25 4.6875 C-2.105625 5.409375 -1.96125 6.13125 -1.8125 6.875 C-1.626875 7.803125 -1.44125 8.73125 -1.25 9.6875 C-0.940625 11.04875 -0.940625 11.04875 -0.625 12.4375 C-0.50125 13.18 -0.3775 13.9225 -0.25 14.6875 C-1.25 15.6875 -1.25 15.6875 -3.8125 15.75 C-4.616875 15.729375 -5.42125 15.70875 -6.25 15.6875 C-6.25 15.0275 -6.25 14.3675 -6.25 13.6875 C-5.26 13.6875 -4.27 13.6875 -3.25 13.6875 C-3.930625 12.800625 -4.61125 11.91375 -5.3125 11 C-7.25 7.6875 -7.25 7.6875 -7.25 5 C-5.74265385 1.51426203 -3.96422971 -0.55058746 0 0 Z " fill="#DFB39C" transform="translate(133.25,158.3125)"/>
<path d="M0 0 C-0.33 0.66 -0.66 1.32 -1 2 C-2.65 2 -4.3 2 -6 2 C-6.17015625 2.59167969 -6.3403125 3.18335938 -6.515625 3.79296875 C-8.00110338 8.63657645 -9.46859353 12.22504826 -13 16 C-10.69 16.33 -8.38 16.66 -6 17 C-6 17.99 -6 18.98 -6 20 C-6.75925781 19.97679687 -7.51851562 19.95359375 -8.30078125 19.9296875 C-9.79158203 19.90261719 -9.79158203 19.90261719 -11.3125 19.875 C-12.29863281 19.85179687 -13.28476562 19.82859375 -14.30078125 19.8046875 C-17.22406527 19.79317361 -17.22406527 19.79317361 -20 22 C-22.33199388 22.07905064 -24.66832622 22.08798769 -27 22 C-27 21.34 -27 20.68 -27 20 C-25.906875 19.855625 -24.81375 19.71125 -23.6875 19.5625 C-21.71170096 19.09817879 -21.71170096 19.09817879 -20 18 C-18.83417905 15.81463982 -18.2438528 13.72636573 -17.62109375 11.33203125 C-16.82114355 8.32844465 -15.46890265 5.72796207 -14 3 C-15.65 3 -17.3 3 -19 3 C-19 2.34 -19 1.68 -19 1 C-12.05412624 -2.40740977 -7.40916417 -1.8931504 0 0 Z " fill="#000000" transform="translate(770,156)"/>
<path d="M0 0 C0.99 0.33 1.98 0.66 3 1 C3 1.66 3 2.32 3 3 C5.64 3 8.28 3 11 3 C11 3.66 11 4.32 11 5 C8.36 5.33 5.72 5.66 3 6 C1.17339803 10.12148343 1.17339803 10.12148343 1.875 14.375 C2.24625 14.91125 2.6175 15.4475 3 16 C1.35 16 -0.3 16 -2 16 C-2.1546875 17.0828125 -2.1546875 17.0828125 -2.3125 18.1875 C-3.4357375 22.78256249 -5.06068974 25.37379316 -9 28 C-9.99 28 -10.98 28 -12 28 C-12.85639722 20.29242499 -10.14130078 16.31888617 -6 10 C-5.04712878 8.32113165 -4.10849276 6.6340656 -3.1875 4.9375 C-1.10769231 1.10769231 -1.10769231 1.10769231 0 0 Z " fill="#000000" transform="translate(939,152)"/>
<path d="M0 0 C1.67542976 0.28604898 3.34385343 0.61781233 5 1 C5.80784795 3.33429153 6.11635505 4.62242947 5.37915039 7.01464844 C5.03875732 7.7059082 4.69836426 8.39716797 4.34765625 9.109375 C3.98349609 9.86347656 3.61933594 10.61757812 3.24414062 11.39453125 C2.65922852 12.56048828 2.65922852 12.56048828 2.0625 13.75 C1.48338867 14.93916016 1.48338867 14.93916016 0.89257812 16.15234375 C-0.06107367 18.10674125 -1.0291649 20.05408106 -2 22 C0.97 22.33 3.94 22.66 7 23 C3.25549268 24.87225366 2.14972809 25.24550933 -1.765625 25.1953125 C-2.65507813 25.18886719 -3.54453125 25.18242187 -4.4609375 25.17578125 C-5.38132812 25.15902344 -6.30171875 25.14226562 -7.25 25.125 C-8.18585937 25.11597656 -9.12171875 25.10695312 -10.0859375 25.09765625 C-12.39088657 25.07413636 -14.6953116 25.04126853 -17 25 C-17 24.34 -17 23.68 -17 23 C-13.86501708 21.14223235 -11.62528568 20.79859524 -8 21 C-7.896875 20.33484375 -7.79375 19.6696875 -7.6875 18.984375 C-6.82689534 15.24856842 -5.44527803 11.78820423 -4 8.25 C-3.59007812 7.22326172 -3.59007812 7.22326172 -3.171875 6.17578125 C-1.13600498 1.13600498 -1.13600498 1.13600498 0 0 Z " fill="#000000" transform="translate(570,152)"/>
<path d="M0 0 C2.475 0.495 2.475 0.495 5 1 C6.05775868 4.29485751 6.10443661 5.73372123 4.8203125 9.0078125 C4.26085938 10.03648437 3.70140625 11.06515625 3.125 12.125 C0.79897766 16.44819272 0.79897766 16.44819272 -1 21 C1.64 21.66 4.28 22.32 7 23 C4.00873681 24.72206188 1.89314287 25.24179923 -1.546875 25.1953125 C-2.81337891 25.18564453 -2.81337891 25.18564453 -4.10546875 25.17578125 C-4.97816406 25.15902344 -5.85085938 25.14226562 -6.75 25.125 C-8.08224609 25.11146484 -8.08224609 25.11146484 -9.44140625 25.09765625 C-11.62788058 25.07414577 -13.81380094 25.04128499 -16 25 C-15.505 23.515 -15.505 23.515 -15 22 C-11.535 21.505 -11.535 21.505 -8 21 C-7.608125 19.7625 -7.21625 18.525 -6.8125 17.25 C-4.86118823 11.36792078 -2.43753821 5.69401218 0 0 Z " fill="#000000" transform="translate(1034,152)"/>
<path d="M0 0 C0.70125 0.144375 1.4025 0.28875 2.125 0.4375 C5.07556141 1.01478375 8.03270151 1.51695141 11 2 C11 2.66 11 3.32 11 4 C9.02 4 7.04 4 5 4 C4.9175 4.845625 4.835 5.69125 4.75 6.5625 C3.84266147 10.72113491 2.23458727 13.39582699 0 17 C-0.66 17 -1.32 17 -2 17 C-2 17.66 -2 18.32 -2 19 C-0.329375 18.9690625 -0.329375 18.9690625 1.375 18.9375 C5 19 5 19 7 20 C6.67 20.66 6.34 21.32 6 22 C5.25234375 21.97679687 4.5046875 21.95359375 3.734375 21.9296875 C2.74953125 21.91164062 1.7646875 21.89359375 0.75 21.875 C-0.22453125 21.85179687 -1.1990625 21.82859375 -2.203125 21.8046875 C-5.065651 22.00458457 -6.52163383 22.6558014 -9 24 C-12.25 24.125 -12.25 24.125 -15 24 C-15 23.34 -15 22.68 -15 22 C-14.08992187 21.65324219 -13.17984375 21.30648437 -12.2421875 20.94921875 C-8.28631312 18.57092801 -6.92362614 15.88802333 -5.125 11.8125 C-4.81820312 11.15830078 -4.51140625 10.50410156 -4.1953125 9.83007812 C-3.44678976 8.22777163 -2.72103504 6.6148625 -2 5 C-3.65 5 -5.3 5 -7 5 C-7 4.34 -7 3.68 -7 3 C-3.535 2.505 -3.535 2.505 0 2 C0 1.34 0 0.68 0 0 Z " fill="#000000" transform="translate(985,154)"/>
<path d="M0 0 C-3.75 3 -3.75 3 -6 3 C-5.88693303 4.95894361 -5.88693303 4.95894361 -5 7 C-2.54295238 8.23290201 -2.54295238 8.23290201 0 9 C0.33 9.33 0.66 9.66 1 10 C0.69594367 15.27030968 -0.24909499 18.24909499 -4 22 C-6.80922326 24.13113488 -8.01243336 23.99914253 -11.625 23.75 C-15 23 -15 23 -17 21 C-17.125 17.875 -17.125 17.875 -17 15 C-16.34 14.67 -15.68 14.34 -15 14 C-14.67 15.32 -14.34 16.64 -14 18 C-10.19985035 17.45712148 -8.46103687 15.88535357 -6 13 C-5.67 12.01 -5.34 11.02 -5 10 C-5.639375 9.7525 -6.27875 9.505 -6.9375 9.25 C-9 8 -9 8 -10 6.125 C-10 4 -10 4 -8.4375 1.75 C-5.41472925 -0.42019439 -3.6413205 -0.33102914 0 0 Z " fill="#000000" transform="translate(1143,154)"/>
<path d="M0 0 C1.5675 -0.061875 3.135 -0.12375 4.75 -0.1875 C6.07257813 -0.23970703 6.07257813 -0.23970703 7.421875 -0.29296875 C10.51205282 0.05818782 11.81735287 0.80731771 14 3 C14.74021854 8.92174833 14.74021854 8.92174833 12.828125 11.70703125 C9.17210987 14.29280264 4.27955664 13.15104318 0 13 C0 8.71 0 4.42 0 0 Z " fill="#050303" transform="translate(78,144)"/>
<path d="M0 0 C1.65 0 3.3 0 5 0 C6.8125 2.5 6.8125 2.5 8 5 C8.391875 4.34 8.78375 3.68 9.1875 3 C9.785625 2.34 10.38375 1.68 11 1 C12.65 1 14.3 1 16 1 C16 4.96 16 8.92 16 13 C14.35 13 12.7 13 11 13 C10.67 11.35 10.34 9.7 10 8 C9.67 8.99 9.34 9.98 9 11 C7.68 11 6.36 11 5 11 C4.34 9.68 3.68 8.36 3 7 C2.67 8.98 2.34 10.96 2 13 C1.34 13 0.68 13 0 13 C0 8.71 0 4.42 0 0 Z " fill="#280E08" transform="translate(148,144)"/>
<path d="M0 0 C0.66 1.32 1.32 2.64 2 4 C1.030625 3.814375 0.06125 3.62875 -0.9375 3.4375 C-1.948125 3.293125 -2.95875 3.14875 -4 3 C-5.41577477 4.18424326 -5.41577477 4.18424326 -5.0625 7.5625 C-5.041875 8.696875 -5.02125 9.83125 -5 11 C-4.01 11 -3.02 11 -2 11 C-2.33 9.68 -2.66 8.36 -3 7 C-1.02 7 0.96 7 3 7 C3 8.98 3 10.96 3 13 C1.22992286 13.08114106 -0.54122098 13.13925505 -2.3125 13.1875 C-3.29863281 13.22230469 -4.28476563 13.25710937 -5.30078125 13.29296875 C-8 13 -8 13 -9.828125 11.671875 C-11.67772302 9.03311516 -11.44692969 7.12850781 -11 4 C-8.02080717 -0.52837311 -5.15974216 -0.39690324 0 0 Z " fill="#1B0906" transform="translate(105,144)"/>
<path d="M0 0 C1.010625 0.0825 2.02125 0.165 3.0625 0.25 C3.7225 1.24 4.3825 2.23 5.0625 3.25 C3.4125 2.92 1.7625 2.59 0.0625 2.25 C1.2690625 3.36375 1.2690625 3.36375 2.5 4.5 C5.95769651 8.21069869 5.95769651 8.21069869 6.0625 11.25 C4.0625 13.25 4.0625 13.25 2.1171875 13.4453125 C0.09895833 13.38020833 -1.91927083 13.31510417 -3.9375 13.25 C-4.2675 12.26 -4.5975 11.27 -4.9375 10.25 C-3.2875 10.25 -1.6375 10.25 0.0625 10.25 C-1.5875 8.93 -3.2375 7.61 -4.9375 6.25 C-3.87489612 0.32977839 -3.87489612 0.32977839 0 0 Z " fill="#170A06" transform="translate(171.9375,143.75)"/>
<path d="M0 0 C3.63 0 7.26 0 11 0 C11 0.66 11 1.32 11 2 C9.02 2 7.04 2 5 2 C5 3.32 5 4.64 5 6 C6.65 6 8.3 6 10 6 C10 6.66 10 7.32 10 8 C8.35 8 6.7 8 5 8 C5 9.65 5 11.3 5 13 C3.35 13 1.7 13 0 13 C0 8.71 0 4.42 0 0 Z " fill="#140604" transform="translate(115,144)"/>
<path d="M0 0 C0.66 0 1.32 0 2 0 C1.67 3.63 1.34 7.26 1 11 C0.01 10.67 -0.98 10.34 -2 10 C-2.66 11.98 -3.32 13.96 -4 16 C-5.32 15.34 -6.64 14.68 -8 14 C-8.0270043 12.54176788 -8.04639787 11.08339325 -8.0625 9.625 C-8.07410156 8.81289062 -8.08570312 8.00078125 -8.09765625 7.1640625 C-8 5 -8 5 -7 3 C-3.125 4.75 -3.125 4.75 -2 7 C-1.34 4.69 -0.68 2.38 0 0 Z " fill="#E0B09B" transform="translate(103,161)"/>
<path d="M0 0 C2.31 0.66 4.62 1.32 7 2 C7.33292585 6.24480464 7.43885872 8.35542625 5 11.9375 C4.34 12.618125 3.68 13.29875 3 14 C2.01 13.67 1.02 13.34 0 13 C0 8.71 0 4.42 0 0 Z " fill="#DEB7A1" transform="translate(107,160)"/>
<path d="M0 0 C0.928125 0.165 1.85625 0.33 2.8125 0.5 C9.8171441 1.49659571 17.0750424 1.49728813 24 0 C20.375 4.875 20.375 4.875 17 6 C10.45459572 6.77377841 6.37279272 5.80572817 1 2 C0.67 1.34 0.34 0.68 0 0 Z " fill="#E95F3B" transform="translate(131,105)"/>
<path d="M0 0 C0.66 0.33 1.32 0.66 2 1 C2 5.62 2 10.24 2 15 C-4.875 13.125 -4.875 13.125 -6 12 C-6.07179964 10.48071962 -6.08392007 8.95832518 -6.0625 7.4375 C-6.05347656 6.61121094 -6.04445313 5.78492188 -6.03515625 4.93359375 C-6.02355469 4.29550781 -6.01195313 3.65742188 -6 3 C-5.01 3.33 -4.02 3.66 -3 4 C-2.67 5.98 -2.34 7.96 -2 10 C-1.93941406 9.36191406 -1.87882812 8.72382813 -1.81640625 8.06640625 C-1.73261719 7.24011719 -1.64882812 6.41382813 -1.5625 5.5625 C-1.48128906 4.73878906 -1.40007812 3.91507813 -1.31640625 3.06640625 C-1 1 -1 1 0 0 Z " fill="#DEB6A1" transform="translate(122,159)"/>
<path d="M0 0 C1.65 0 3.3 0 5 0 C5 3.63 5 7.26 5 11 C6.65 11 8.3 11 10 11 C10 11.66 10 12.32 10 13 C6.7 13 3.4 13 0 13 C0 8.71 0 4.42 0 0 Z " fill="#110807" transform="translate(136,144)"/>
<path d="M0 0 C3.3 0 6.6 0 10 0 C10 0.33 10 0.66 10 1 C7.03 1 4.06 1 1 1 C1 4.63 1 8.26 1 12 C2.32 12 3.64 12 5 12 C5 8.7 5 5.4 5 2 C5.99 2 6.98 2 8 2 C9.36952673 4.73905345 9.12621361 6.97087332 9 10 C8.67 10.66 8.34 11.32 8 12 C8.99 12.33 9.98 12.66 11 13 C7.37 13 3.74 13 0 13 C0 8.71 0 4.42 0 0 Z " fill="#270B07" transform="translate(78,144)"/>
<path d="M0 0 C1.65 0 3.3 0 5 0 C5 4.29 5 8.58 5 13 C3.35 13 1.7 13 0 13 C0 8.71 0 4.42 0 0 Z " fill="#130603" transform="translate(128,144)"/>
<path d="M0 0 C0.33 0 0.66 0 1 0 C1.17015625 0.97839844 1.3403125 1.95679687 1.515625 2.96484375 C2.75146419 9.75589275 4.01941012 16.03882023 7.1328125 22.265625 C8 24 8 24 9 27 C8.01 27 7.02 27 6 27 C1.22951105 18.2815202 -2.06839227 9.96589001 0 0 Z " fill="#D85235" transform="translate(119,87)"/>
<path d="M0 0 C1.65 0 3.3 0 5 0 C5 3.96 5 7.92 5 12 C3.68 12 2.36 12 1 12 C0.855625 10.9275 0.71125 9.855 0.5625 8.75 C0.10012053 5.20640191 0.10012053 5.20640191 -0.625 2.625 C-0.74875 2.08875 -0.8725 1.5525 -1 1 C-0.67 0.67 -0.34 0.34 0 0 Z " fill="#040201" transform="translate(159,145)"/>
<path d="M0 0 C-0.70125 0.556875 -1.4025 1.11375 -2.125 1.6875 C-8.29874156 6.57965885 -8.29874156 6.57965885 -14 12 C-13.82303398 7.48736659 -13.42983984 5.48101125 -10.375 2.0625 C-6.53317357 -0.28528282 -4.41978657 -0.44197866 0 0 Z " fill="#EB5438" transform="translate(119,107)"/>
<path d="M0 0 C1.98 0 3.96 0 6 0 C6.391875 0.886875 6.78375 1.77375 7.1875 2.6875 C9.06636955 6.12129608 11.13295455 8.36541769 14 11 C11.69 10.67 9.38 10.34 7 10 C6.67 10.99 6.34 11.98 6 13 C5.67 13 5.34 13 5 13 C5 9.04 5 5.08 5 1 C3.35 1 1.7 1 0 1 C0 0.67 0 0.34 0 0 Z " fill="#CF5F39" transform="translate(159,144)"/>
<path d="M0 0 C2.97 0.495 2.97 0.495 6 1 C5.67 4.3 5.34 7.6 5 11 C2 10 2 10 0.25 7.75 C-1.18671298 4.58923143 -1.02214896 3.25229215 0 0 Z " fill="#F96C4A" transform="translate(131,162)"/>
<path d="M0 0 C1.5625 1.625 1.5625 1.625 3 4 C2.7586135 7.01733125 2.35358479 9.29283042 1 12 C0.34 12 -0.32 12 -1 12 C-1.2226746 10.56465159 -1.42761906 9.12654475 -1.625 7.6875 C-1.74101562 6.88699219 -1.85703125 6.08648437 -1.9765625 5.26171875 C-2 3 -2 3 0 0 Z " fill="#FA7149" transform="translate(150,163)"/>
<path d="M0 0 C-0.33 1.65 -0.66 3.3 -1 5 C-3.31 5 -5.62 5 -8 5 C-8 3.68 -8 2.36 -8 1 C-5.10765685 0.17361624 -3.11257569 0 0 0 Z " fill="#B0402B" transform="translate(115,206)"/>
<path d="M0 0 C0.99 0 1.98 0 3 0 C4.35439668 2.70879335 4.06501451 5.00933268 4 8 C2.68 8.33 1.36 8.66 0 9 C0 6.03 0 3.06 0 0 Z " fill="#E44731" transform="translate(83,146)"/>
<path d="M0 0 C0.33 0 0.66 0 1 0 C1 2.31 1 4.62 1 7 C0.01 7.495 0.01 7.495 -1 8 C-1 7.34 -1 6.68 -1 6 C-2.65 6 -4.3 6 -6 6 C-6 4.68 -6 3.36 -6 2 C-4.02 2 -2.04 2 0 2 C0 1.34 0 0.68 0 0 Z " fill="#E4583B" transform="translate(126,144)"/>
<path d="M0 0 C0.75 1.75 0.75 1.75 1 4 C-0.5 6.25 -0.5 6.25 -3 8 C-6.75 8.25 -6.75 8.25 -10 8 C-9.195625 7.4121875 -9.195625 7.4121875 -8.375 6.8125 C-5.50791468 4.6244612 -2.76035432 2.32120704 0 0 Z " fill="#D54D33" transform="translate(114,90)"/>
<path d="M0 0 C1.175625 0.0825 2.35125 0.165 3.5625 0.25 C4.2225 1.24 4.8825 2.23 5.5625 3.25 C2.58398438 3.54296875 2.58398438 3.54296875 -0.39453125 3.8359375 C-2.73738142 4.17665391 -2.73738142 4.17665391 -5.4375 6.25 C-4.37278578 0.31802078 -4.37278578 0.31802078 0 0 Z " fill="#D95D39" transform="translate(153.4375,85.75)"/>
<path d="M0 0 C0.66 0 1.32 0 2 0 C3.26237731 2.52475462 3.09856404 4.31200466 3.0625 7.125 C3.05347656 8.03507813 3.04445313 8.94515625 3.03515625 9.8828125 C3.02355469 10.58148438 3.01195313 11.28015625 3 12 C2.01 11.34 1.02 10.68 0 10 C-0.29296875 7.6171875 -0.29296875 7.6171875 -0.1875 4.875 C-0.16042969 3.96492187 -0.13335937 3.05484375 -0.10546875 2.1171875 C-0.07066406 1.41851562 -0.03585938 0.71984375 0 0 Z " fill="#E2AC9A" transform="translate(89,162)"/>
<path d="M0 0 C0.99 0.33 1.98 0.66 3 1 C2.01 1.66 1.02 2.32 0 3 C2.31 3.33 4.62 3.66 7 4 C7 4.33 7 4.66 7 5 C5.35 5.33 3.7 5.66 2 6 C2 6.99 2 7.98 2 9 C1.01 9 0.02 9 -1 9 C-1.625 5.625 -1.625 5.625 -2 2 C-1.34 1.34 -0.68 0.68 0 0 Z " fill="#D84C34" transform="translate(101,146)"/>
<path d="M0 0 C0.33 0 0.66 0 1 0 C1.36337162 3.27034459 1.28544288 4.60883753 -0.6875 7.3125 C-3.39116247 9.28544288 -4.72965541 9.36337162 -8 9 C-6.625 7.5 -6.625 7.5 -5 6 C-4.34 6 -3.68 6 -3 6 C-2.690625 5.195625 -2.38125 4.39125 -2.0625 3.5625 C-1 1 -1 1 0 0 Z " fill="#D94933" transform="translate(97,103)"/>
<path d="M0 0 C3.5 -0.3125 3.5 -0.3125 7 0 C7.66 0.66 8.32 1.32 9 2 C8.625 4.125 8.625 4.125 8 6 C7.649375 5.505 7.29875 5.01 6.9375 4.5 C4.05625711 2.26936034 1.52990974 2.80019379 -2 3 C-1.34 2.01 -0.68 1.02 0 0 Z " fill="#E15A39" transform="translate(129,86)"/>
<path d="M0 0 C2.31 0 4.62 0 7 0 C6.67 1.32 6.34 2.64 6 4 C3.69 4 1.38 4 -1 4 C-0.67 2.68 -0.34 1.36 0 0 Z " fill="#B6442D" transform="translate(119,207)"/>
<path d="M0 0 C2.31 0 4.62 0 7 0 C6.67 1.32 6.34 2.64 6 4 C5.01 3.67 4.02 3.34 3 3 C2.67 3.33 2.34 3.66 2 4 C1.01 4 0.02 4 -1 4 C-0.67 2.68 -0.34 1.36 0 0 Z " fill="#AF462D" transform="translate(134,207)"/>
<path d="M0 0 C0.33 0 0.66 0 1 0 C1.33 3.63 1.66 7.26 2 11 C1.01 11.495 1.01 11.495 0 12 C-0.19573608 10.56359829 -0.38127816 9.12580496 -0.5625 7.6875 C-0.66691406 6.88699219 -0.77132812 6.08648437 -0.87890625 5.26171875 C-1 3 -1 3 0 0 Z " fill="#C74B31" transform="translate(119,87)"/>
<path d="M0 0 C0.66 0 1.32 0 2 0 C1.67 3.63 1.34 7.26 1 11 C-1.78637633 6.8204355 -0.79562512 4.85331323 0 0 Z " fill="#E8957B" transform="translate(103,161)"/>
<path d="M0 0 C0.99 0 1.98 0 3 0 C2.625 2.9375 2.625 2.9375 2 6 C1.01 6.495 1.01 6.495 0 7 C0 4.69 0 2.38 0 0 Z " fill="#F76A4D" transform="translate(110,163)"/>
</svg>
